# xmcd
#
# Track frame offsets: 
#        150
#        17775
#        30465
#        42005
#        59810
#        74555
#        86450
#        91355
#        118405
#        134925
#        149985
#        164600
#        167057
#        179400
#        181530
#        186135
#        190735
#        197230
#        211430
#
# Disc length: 3351 seconds
#
# Revision: 6
# Processed by: cddbd v1.5PL3 Copyright (c) Steve Scherf et al.
# Submitted via: ExactAudioCopy v0.90b4
#
DISCID=2a0d1513
DTITLE=Black Cat White Cat - BLACK CAT WHITE CAT
DYEAR=1999
DGENRE=Soundtrack
TTITLE0=Bubamara (main version)
TTITLE1=Duj Sandale
TTITLE2=Railway Station
TTITLE3=Jek Di Tharin II-New Version
TTITLE4=Daddy, Don't Ever Die On A Friday
TTITLE5=Dejan Sparavalo - Bubamara (2)
TTITLE6=Daddy's Gone
TTITLE7=Long Vehicle
TTITLE8=Vojislav Aralica - Pit Bull (Mixed by Pink Evolution)
TTITLE9=El Bubamara pasa
TTITLE10=Ja Volim Te Jos-Meine Stadt
TTITLE11=Bubamara-Tree Stump
TTITLE12=Voki Kostic - Jek Di Tharin
TTITLE13=Lies
TTITLE14=Dejan Sparavalo - Hunting
TTITLE15=Dejan Sparavalo - Dejo Dance
TTITLE16=Dejan Sparavalo - Bulgarian Dance
TTITLE17=Dejan Sparavalo - Bubamara-Sunflower
TTITLE18=Vojislav Aralica - Black Cat White Cat
EXTD=
EXTT0=
EXTT1=
EXTT2=
EXTT3=
EXTT4=
EXTT5=
EXTT6=
EXTT7=
EXTT8=
EXTT9=
EXTT10=
EXTT11=
EXTT12=
EXTT13=
EXTT14=
EXTT15=
EXTT16=
EXTT17=
EXTT18=
PLAYORDER=
